<mxfile host="app.diagrams.net" agent="Mozilla/5.0 (Macintosh; Intel Mac OS X 10_15_7) AppleWebKit/537.36 (KHTML, like Gecko) Chrome/134.0.0.0 Safari/537.36" version="26.1.0">
  <diagram name="第 1 页" id="F-i8BlQ6X5yYt4TpNBhq">
    <mxGraphModel dx="1026" dy="684" grid="1" gridSize="10" guides="1" tooltips="1" connect="1" arrows="1" fold="1" page="1" pageScale="1" pageWidth="827" pageHeight="1169" math="0" shadow="0">
      <root>
        <mxCell id="0" />
        <mxCell id="1" parent="0" />
        <mxCell id="B5p7FsAqRLIVTu6vf_ON-3" value="" style="edgeStyle=orthogonalEdgeStyle;rounded=0;orthogonalLoop=1;jettySize=auto;html=1;" edge="1" parent="1" source="B5p7FsAqRLIVTu6vf_ON-1" target="B5p7FsAqRLIVTu6vf_ON-2">
          <mxGeometry relative="1" as="geometry" />
        </mxCell>
        <mxCell id="B5p7FsAqRLIVTu6vf_ON-1" value="启动服务器" style="rounded=0;whiteSpace=wrap;html=1;direction=south;" vertex="1" parent="1">
          <mxGeometry x="380" y="180" width="90" height="40" as="geometry" />
        </mxCell>
        <mxCell id="B5p7FsAqRLIVTu6vf_ON-2" value="服务器初始化" style="rounded=0;whiteSpace=wrap;html=1;direction=south;" vertex="1" parent="1">
          <mxGeometry x="380" y="250" width="90" height="40" as="geometry" />
        </mxCell>
      </root>
    </mxGraphModel>
  </diagram>
</mxfile>
